<svg xmlns="http://www.w3.org/2000/svg" fill="none" viewBox="0 0 336 494"><path fill="#67C787" d="M117.038 60.066c30.416 36.249 38.724 82.972 40.953 108.413.837 9.559-8.061 17.025-17.329 14.54-24.667-6.613-69.238-22.908-99.655-59.157C10.592 87.614 2.284 40.89.055 15.45-.783 5.891 8.116-1.576 17.384.909c24.667 6.613 69.237 22.908 99.654 59.157z"/><path fill="#000" d="M157.991 168.479c-2.229-25.441-10.537-72.164-40.953-108.413a145.808 145.808 0 00-8.145-8.904c-31.924 15.775-54.127 48.236-55.21 85.993 29.136 27.07 65.559 40.122 86.979 45.864 9.269 2.485 18.167-4.981 17.329-14.54z" opacity=".1"/><path fill="#000" d="M118.465 146.465a7.481 7.481 0 01-5.749-2.679L33.84 49.785a7.5 7.5 0 01.924-10.566 7.5 7.5 0 0110.566.924l78.876 94.001a7.5 7.5 0 01-.924 10.566 7.465 7.465 0 01-4.817 1.755z" opacity=".1"/><path fill="#E9F4A4" d="M276.528 156.663v-1.311c0-54.64-43.704-99.931-98.343-100.336-55.073-.408-99.846 44.113-99.846 99.092v2.545c0 30.898-10.316 60.743-28.557 85.682-19.574 26.761-30.937 59.905-30.374 95.73 1.312 83.531 68.364 152.205 151.844 155.388 90.103 3.436 164.228-68.59 164.228-157.928 0-35.101-11.446-67.524-30.806-93.75-18.208-24.665-28.146-54.455-28.146-85.112z"/><path fill="#A8EFBB" d="M304.673 241.774c-18.207-24.664-28.145-54.454-28.145-85.111v-1.311c0-54.64-43.705-99.931-98.343-100.336-55.073-.408-99.846 44.113-99.846 99.092v2.545c0 30.898-10.316 60.743-28.557 85.682-19.574 26.761-30.937 59.905-30.374 95.729 1.312 83.531 68.364 152.205 151.844 155.388 90.103 3.436 164.228-68.59 164.228-157.928 0-35.1-11.447-67.524-30.807-93.75zm-35.282 185.709c-24.56 24.56-57.218 38.088-91.952 38.088h-.004c-1.697 0-3.418-.033-5.117-.098-33.172-1.266-64.345-15.169-87.773-39.151-23.429-23.981-36.619-55.481-37.141-88.697-.448-28.571 8.19-55.806 24.979-78.76 22.215-30.371 33.957-65.715 33.957-102.212v-2.545c0-39.202 31.892-71.095 71.095-71.095l.543.002c38.902.288 70.552 32.738 70.552 72.337v1.311c0 36.766 11.625 71.947 33.617 101.74 16.574 22.451 25.334 49.119 25.334 77.121-.002 34.739-13.528 67.397-38.09 91.959z"/><path fill="#000" d="M164.14 55.905c-48.441 6.496-85.801 47.983-85.801 98.203v2.545c0 30.898-10.316 60.743-28.557 85.682-19.574 26.761-30.937 59.905-30.374 95.729 1.312 83.531 68.364 152.205 151.844 155.388 31.055 1.184 60.211-6.598 85.089-20.962-214.6-95.547-145.224-339.519-92.201-416.585z" opacity=".1"/><path fill="#B38A82" d="M177.43 402.499c36.986 0 66.97-29.984 66.97-66.97 0-36.987-29.984-66.97-66.97-66.97-36.987 0-66.97 29.983-66.97 66.97 0 36.986 29.983 66.97 66.97 66.97z"/><path fill="#000" d="M226.468 381.118c-71.11 12.594-92.238-80.764-67.064-110.088-28.226 7.875-48.941 33.757-48.941 64.495 0 36.987 29.984 66.97 66.97 66.97 19.369 0 36.808-8.232 49.035-21.377z" opacity=".1"/></svg>
