<svg xmlns="http://www.w3.org/2000/svg" fill="none" viewBox="0 0 317 433"><path fill="#464D59" d="M300.927 127.366l.339-1.266c14.142-52.779-16.351-107.838-69.024-122.37-53.091-14.648-107.861 16.768-122.091 69.874l-.659 2.458c-7.997 29.845-25.686 56.004-49.76 75.371-25.833 20.783-45.387 49.856-54.116 84.606-20.352 81.024 26.641 164.713 106.452 189.394 86.143 26.639 176.385-23.747 199.507-110.041 9.085-33.904 6.421-68.186-5.492-98.529-11.201-28.538-13.09-59.884-5.156-89.497z"/><path fill="#000" d="M284.66 370.286c-163.616 75.816-243.546-104.785-158.501-188.92 42.048-41.598 13.615-119.129 33.458-169.745-23.536 12.43-42.032 34.245-49.465 61.983l-.658 2.458c-7.997 29.845-25.686 56.004-49.76 75.371-25.833 20.783-45.387 49.856-54.116 84.606-20.352 81.024 26.641 164.713 106.452 189.393 65.666 20.307 133.707-4.15 172.59-55.146z" opacity=".1"/><path fill="#fff" d="M56.91 233.51a7.5 7.5 0 100-15.002 7.5 7.5 0 000 15.002zM71.1 333.99a7.5 7.5 0 100-15.002 7.5 7.5 0 000 15.002zM113.59 303.11a7.5 7.5 0 007.501-7.501 7.5 7.5 0 00-7.501-7.501 7.5 7.5 0 00-7.501 7.501 7.5 7.5 0 007.501 7.501zM101.56 356.5a7.5 7.5 0 007.501-7.501 7.5 7.5 0 10-7.501 7.501zM254.4 86.41a7.5 7.5 0 100-15.002 7.5 7.5 0 000 15.002zM258.9 149.41a7.5 7.5 0 007.501-7.501 7.5 7.5 0 00-7.501-7.501 7.5 7.5 0 00-7.501 7.501 7.5 7.5 0 007.501 7.501zM219.47 113.41a7.5 7.5 0 007.501-7.501 7.5 7.5 0 00-7.501-7.501 7.5 7.5 0 00-7.501 7.501 7.5 7.5 0 007.501 7.501z" opacity=".3"/><path fill="#000" d="M78.6 275.61a7.5 7.5 0 100-15.002 7.5 7.5 0 000 15.002zM126.16 233.51a7.5 7.5 0 007.501-7.501 7.5 7.5 0 00-7.501-7.501 7.5 7.5 0 00-7.501 7.501 7.5 7.5 0 007.501 7.501zM266.4 215.06a7.5 7.5 0 007.501-7.501 7.5 7.5 0 00-7.501-7.501 7.5 7.5 0 00-7.501 7.501 7.5 7.5 0 007.501 7.501zM199.31 63.83a7.5 7.5 0 100-15.002 7.5 7.5 0 000 15.002zM261.9 331.44a7.5 7.5 0 007.501-7.501 7.5 7.5 0 00-7.501-7.501 7.5 7.5 0 00-7.501 7.501 7.5 7.5 0 007.501 7.501zM276.9 303.11a7.5 7.5 0 007.501-7.501 7.5 7.5 0 00-7.501-7.501 7.5 7.5 0 00-7.501 7.501 7.5 7.5 0 007.501 7.501z" opacity=".1"/></svg>
